# xmcd
#
# Track frame offsets: 
#        150
#        18235
#        56235
#        73830
#        97113
#        117878
#        143893
#
# Disc length: 2283 seconds
#
# Revision: 1
# Processed by: cddbd v1.5.2PL0 Copyright (c) Steve Scherf et al.
# Submitted via: ExactAudioCopy v0.95b4
#
DISCID=6508e907
DTITLE=Frank Wess - The Frank Wess Quartet
DYEAR=1960
DGENRE=Jazz
TTITLE0=It's So Peaceful In The Country
TTITLE1=Rainy Afternoon
TTITLE2=Star Eyes
TTITLE3=Stella By Starlight
TTITLE4=But Beautiful
TTITLE5=Gone With The Wind
TTITLE6=I See Your Face Before Me
EXTD=YEAR: 1960
EXTT0=
EXTT1=
EXTT2=
EXTT3=
EXTT4=
EXTT5=
EXTT6=
PLAYORDER=
